<svg version="1.2" xmlns="http://www.w3.org/2000/svg" viewBox="0 0 1824 736" width="1824" height="736"><style>.a{fill:#fefefe}</style><path class="a" d="m1740 10c24.4 0 48.8 0 74 0q0.1 80.8 0.1 161.6c0 1.2 0 1.2 0 2.4q0 26 0 52.1 0 12.7 0 25.5 0 1.2 0 2.5 0 41.2 0.1 82.3 0 42.2 0 84.5 0 6 0 12c0 1.1 0 1.1 0 2.3q0 18.9 0 37.8 0 19.1 0 38.1 0 10.3 0 20.6 0.1 9.4 0 18.9 0 3.4 0 6.8c0.1 17.1-0.1 34.5-4.4 51.2q-0.3 1.2-0.6 2.6c-10.4 40-35.3 72.8-71 93.9-10.3 5.8-21 10.5-32.4 13.7-1 0.3-1 0.3-2.1 0.6-12 3.2-24 4-36.5 3.9q-1.1 0-2.2 0c-11 0-21.4-0.4-32-3.3q-1.1-0.3-2.2-0.6c-37.9-10.2-69.7-34.7-89.8-68.4-11.6-20.4-20.1-44.3-20.2-68q0-1.1 0-2.2 0-2.4 0-4.8-0.1-3.5-0.1-7.1c-0.1-14 1.8-27.4 6-40.8 0.4-1.3 0.4-1.3 0.8-2.5 12-37.9 38.2-68.8 73.2-87.5 20.8-10.7 42.4-15.3 65.7-15.3 1.1-0.1 1.1-0.1 2.3-0.1 11.1 0.1 21.5 0.5 32.3 3.3 1 0.2 1 0.2 2 0.5 13.1 3.1 23.6 8.6 36 14.5 0.5-213.3 0.5-213.3 1-431z"/><path class="a" d="m10 311c26.1 0 52.1 0 79 0 7.9 15.7 7.9 15.7 10.4 21.7q0.4 1 0.8 2 0.9 2.1 1.8 4.2 2 4.6 3.9 9.1 1 2.4 2.1 4.9 4.7 11.2 9.6 22.4 2.5 5.7 5 11.5 0.5 1.2 1 2.4 7 16.2 14 32.4c0.7 1.6 0.7 1.6 1.4 3.3q3.6 8.2 7.2 16.5 6.2 14.5 12.4 28.9 3.5 8 6.9 16 1.4 3.1 2.7 6.3 2.8 6.4 5.5 12.8 0.7 1.5 1.4 3.2 1.4 3.2 2.8 6.3 3.4 8 6.8 15.9 6.4 14.8 12.8 29.7 3 6.9 6 13.8 1.4 3.3 2.8 6.6 7.8 18.1 15.7 36.1c3.8-7.4 7.2-14.9 10.4-22.5q1.4-3.3 2.8-6.7 1.6-3.7 3.2-7.4 6.8-15.8 13.5-31.5 3.9-9.1 7.8-18.1 0.4-1 0.8-1.9 5-11.8 10.1-23.6c10.7-25.1 21.5-50.2 32.4-75.2 8.4-19.4 16.8-38.9 25-58.4 5.7-13.3 11.3-26.5 17.1-39.7 3-7 6-14 8.9-21 25.4 0 50.8 0 77 0-1.5 4.6-3.2 8.9-5.2 13.3-0.5 1.1-0.5 1.1-1 2.2q-1 2.3-2.1 4.6-2.9 6.4-5.7 12.8-0.6 1.4-1.3 2.8-6.8 15.2-13.5 30.4-1.3 2.8-2.5 5.6-3.9 8.7-7.7 17.3-5.2 11.8-10.4 23.5c-0.7 1.4-0.7 1.4-1.3 2.9q-8.1 18.2-16.3 36.5-7.3 16.3-14.6 32.6-0.6 1.4-1.2 2.9-4.6 10.3-9.2 20.6-5.2 11.8-10.4 23.5-0.7 1.4-1.3 2.9-8.1 18.2-16.3 36.5-7.3 16.3-14.6 32.6c-0.6 1.4-0.6 1.4-1.2 2.9q-6.6 14.7-13.1 29.5c-10 22.4-20 44.8-30.1 67.1-20.8 0-41.6 0-63 0-9.4-20.8-18.9-41.6-28-62.5q-9.1-20.8-18.5-41.5-9.4-20.7-18.6-41.6-8.7-20.1-17.8-40.1-9.5-21.2-19-42.5c-0.6-1.4-0.6-1.4-1.2-2.8q-3.2-7.1-6.3-14.2-6.5-14.7-13-29.3c-0.7-1.4-0.7-1.4-1.3-2.9q-7.4-16.6-14.8-33.1c-11.4-25.3-22.7-50.7-33.8-76.2q-0.9-2-1.9-4.1-1.2-2.9-2.4-5.7-0.7-1.5-1.4-3.2c-1-2.3-1-2.3-1-3.3z"/><path class="a" d="m1399 433q1.2 0.3 2.3 0.6c30 8.3 52.9 28.3 68.7 54.7 16.1 28.9 19 60.6 19.1 93 0 1.3 0 1.3 0 2.6 0 6 0 6-1.1 7.1q-3.8 0.1-7.7 0.1c-1.2 0-1.2 0-2.4 0q-4.2 0-8.3 0-2.9 0-5.9 0-8 0-16 0-8.3 0-16.7 0-15.9 0-31.7 0-18 0-36.1 0-37.1-0.1-74.2-0.1 0.9 4.8 1.9 9.5 0.2 1.4 0.5 2.7c3.9 19.7 12.7 36.3 29.6 47.7 10.4 6.7 21 9.7 33 12.1q1.4 0.3 2.8 0.6c14.1 1.8 29.2 1 43.2-1.6q1.1-0.2 2.2-0.4c22.6-3.9 42.4-12.9 60.8-26.6 2.6 3.2 4.1 6.4 5.7 10.2q0.4 0.9 0.8 1.9 1.1 2.9 2.3 5.8 1.2 2.8 2.3 5.6 0.8 1.9 1.6 3.8 1.9 4.9 4 9.7 0.4 0.9 0.9 1.9 1.1 2.6 2.3 5.3c1.1 2.8 1.1 2.8 1.1 5.8-1.9 1.6-3.8 3-5.9 4.3q-0.9 0.6-1.8 1.2-1.8 1.2-3.6 2.4-2.1 1.4-4.1 2.7c-39.3 25.4-94.7 29.9-139.6 20.8-13.4-2.9-25.8-7.2-38-13.4q-0.9-0.5-1.9-1c-18.8-9.7-35.6-24.2-47.1-42q-0.5-0.8-1.1-1.6c-22.8-34.6-26.7-80.4-18.6-120.4 5.3-24.3 15.6-45 31.7-64q0.8-1 1.6-2c32.8-39.9 95.2-52.5 143.4-39zm-92.8 70.1c-9.8 12.8-17.2 29.7-17.2 45.9 45.9 0 91.7 0 139 0-0.9-11.5-0.9-11.5-3.2-22.6-0.3-1.2-0.3-1.2-0.7-2.4-4.7-16.6-14-30.1-29.1-38.7-30.2-15.1-66.9-7.4-88.8 17.8z"/><path class="a" d="m590 433q1.2 0.3 2.3 0.6c30 8.3 52.9 28.3 68.7 54.7 16.1 28.9 19 60.6 19.1 93 0 1.3 0 1.3 0 2.6 0 6 0 6-1.1 7.1q-3.8 0.1-7.7 0.1c-1.2 0-1.2 0-2.4 0q-4.2 0-8.3 0-2.9 0-5.9 0-8 0-16 0-8.3 0-16.7 0-15.9 0-31.7 0-18 0-36.1 0-37.1-0.1-74.2-0.1 0.9 4.8 1.9 9.5 0.2 1.4 0.5 2.7c3.9 19.7 12.7 36.3 29.6 47.7 10.4 6.7 21 9.7 33 12.1q1.4 0.3 2.8 0.6c14.1 1.8 29.2 1 43.2-1.6q1.1-0.2 2.2-0.4c22.6-3.9 42.4-12.9 60.8-26.6 2.6 3.2 4.1 6.4 5.7 10.2q0.4 0.9 0.8 1.9 1.1 2.9 2.3 5.8 1.2 2.8 2.3 5.6 0.8 1.9 1.6 3.8 1.9 4.9 4 9.7 0.4 0.9 0.9 1.9 1.1 2.6 2.3 5.3c1.1 2.8 1.1 2.8 1.1 5.8-1.9 1.6-3.8 3-5.9 4.3q-0.9 0.6-1.8 1.2-1.8 1.2-3.6 2.4-2.1 1.4-4.1 2.7c-39.3 25.4-94.7 29.9-139.6 20.8-13.4-2.9-25.8-7.2-38-13.4q-0.9-0.5-1.9-1c-18.8-9.7-35.6-24.2-47.1-42q-0.5-0.8-1.1-1.6c-22.8-34.6-26.7-80.4-18.6-120.4 5.3-24.3 15.6-45 31.7-64q0.8-1 1.6-2c32.8-39.9 95.2-52.5 143.4-39zm-92.8 70.1c-9.8 12.8-17.2 29.7-17.2 45.9 45.9 0 91.7 0 139 0-0.9-11.5-0.9-11.5-3.2-22.6-0.3-1.2-0.3-1.2-0.7-2.4-4.7-16.6-14-30.1-29.1-38.7-30.2-15.1-66.9-7.4-88.8 17.8z"/><path class="a" d="m1056.4 428.8c1.2 0 1.2 0 2.3 0q3.8 0 7.5-0.1c1.3 0 1.3 0 2.6 0 12.7 0.1 24.8 0.5 37.2 3.3 1.2 0.2 1.2 0.2 2.4 0.5 23 4.8 44.2 13.8 62.6 28.5-0.6 4.7-1.9 8.6-3.8 13q-0.4 1-0.8 2-1.3 3.1-2.7 6.2-0.8 2-1.7 4.1c-3.2 7.6-6.5 15.2-10 22.7-3.5-1.3-6.2-2.7-9.1-5.1-26-18.5-62.2-26.3-93.6-22.6-10.5 1.8-21.3 5.4-28.3 13.7-1.1 1.1-1.1 1.1-2.1 2.2-4.3 6.4-6 14.2-4.9 21.8 1.7 6.5 3.6 11.7 9 16q1.5 1.3 3 2.6c8.7 6 20.8 7.3 31 9.3q3 0.6 6 1.1 4.1 0.8 8.2 1.6c77.7 14.8 77.7 14.8 95.8 40.4 11.9 19.2 13.9 41.3 9.1 63.2-3.6 12.7-9.5 22.8-18.1 32.8-0.9 1-0.9 1-1.7 2-19.9 21.6-53.3 30.5-81.5 32.1-5.2 0.2-10.4 0.2-15.7 0.2q-1.2 0-2.4 0c-38.9-0.2-86.3-6.6-116.7-33.3 2-6.1 4.2-12.2 6.5-18.2q0.5-1.2 1-2.5 1-2.6 2-5.2 1.6-3.9 3.1-7.9 1-2.6 2-5.1 0.5-1.2 1-2.4c2.2-5.6 2.2-5.6 4.4-6.7 2.4 1.2 4.7 2.5 7.1 3.9 19.6 11.4 39.4 18.8 61.7 22.7q2.8 0.5 5.5 1.1c21.3 4.1 48.1 3.7 66.7-8.7 6.7-5.8 10.3-12.8 11-21.6 0-6.4-1.3-12.1-5-17.4-10.2-9.3-23.7-12.5-36.9-14.9q-3.4-0.6-6.7-1.3-8.4-1.6-16.8-3.1c-68.4-12.7-68.4-12.7-86.6-37.8q-1.5-2.4-3-4.9c-0.7-1.1-0.7-1.1-1.4-2.3-9.4-16.9-10.6-39.7-6.1-58.3 3.9-13 9.8-23.9 19.5-33.4 1.3-1.4 1.3-1.4 2.6-2.8q1.2-1.1 2.4-2.2 0.7-0.7 1.4-1.3c21-19.3 53-27.7 81-27.9z"/><path class="a" d="m915 427q0.9 10.1 1.7 20.2 0.3 3.5 0.6 6.9c2 23.6 2 23.6 1.7 34.9q-0.9 0.1-1.7 0.2-9.2 0.8-18.3 1.7-3.4 0.3-6.8 0.7c-22.2 2-42.8 4.7-61.2 18.4-0.9 0.6-0.9 0.6-1.8 1.2-12.4 9.3-17.6 25.4-19.8 40.1-0.7 6.6-0.7 13.2-0.7 19.8q0 2.3 0 4.7-0.1 6.3-0.1 12.6 0 6.7-0.1 13.3 0 12.5-0.1 25.1-0.1 16.9-0.2 33.9-0.1 26.6-0.2 53.3c-24.1 0-48.2 0-73 0 0-92.4 0-184.8 0-280 23.1 0 46.2 0 70 0 0.3 14.9 0.7 29.7 1 45 2.3-4 4.6-7.9 7-12 14.7-21.2 36.9-31.5 61.4-36.7 13.3-2.3 27.1-3.4 40.6-3.3z"/></svg>