<?xml version="1.0" encoding="UTF-8"?>
<svg version="1.1" xmlns="http://www.w3.org/2000/svg" viewBox="32 34 1824 736">
<path d="M0 0 C24.42 0 48.84 0 74 0 C74.03383206 53.86907708 74.06609416 107.73815398 74.08468628 161.60723877 C74.08510045 162.80419344 74.08510045 162.80419344 74.08552299 164.02532902 C74.09150956 181.36962686 74.09704982 198.71392481 74.10213066 216.05822293 C74.10462521 224.56453146 74.10721834 233.07083996 74.10986328 241.57714844 C74.1101248 242.42360391 74.11038632 243.27005937 74.11065576 244.14216501 C74.11917019 271.55140159 74.13418663 298.9606299 74.15259444 326.36986148 C74.17148495 354.54917551 74.18377676 382.72848497 74.18782998 410.90780522 C74.18840624 414.89289524 74.18905752 418.87798525 74.18975449 422.86307526 C74.18995676 424.03949678 74.18995676 424.03949678 74.19016311 425.23968439 C74.19252155 437.83683976 74.20178416 450.43398094 74.21366407 463.03113054 C74.22547452 475.71222788 74.22992698 488.39331122 74.22700275 501.07441387 C74.22562061 507.9385099 74.2273888 514.80256812 74.23841095 521.66665649 C74.24820048 527.96163014 74.24859813 534.25653473 74.24179779 540.55151168 C74.24095829 542.81834112 74.24344674 545.08517501 74.24976636 547.3519958 C74.29465957 564.46206123 74.09073256 581.88605196 69.8125 598.5625 C69.59746826 599.42270752 69.38243652 600.28291504 69.16088867 601.16918945 C58.760578 641.240651 33.86465308 674.04304591 -1.8125 695.125 C-12.13171981 700.94886031 -22.77769718 705.58783185 -34.1875 708.8125 C-35.21858887 709.10483521 -35.21858887 709.10483521 -36.27050781 709.40307617 C-48.33448019 712.60836345 -60.33340431 713.37662592 -72.75 713.3125 C-73.50145294 713.31034485 -74.25290588 713.3081897 -75.02713013 713.30596924 C-85.96621663 713.25560499 -96.38816598 712.89712945 -107 710 C-107.7307373 709.80664062 -108.46147461 709.61328125 -109.21435547 709.4140625 C-147.13570172 699.17743164 -178.90078735 674.69672329 -199 641 C-210.5762735 620.60250499 -219.05930925 596.65926543 -219.203125 573.0390625 C-219.20882507 572.29022797 -219.21452515 571.54139343 -219.22039795 570.76986694 C-219.22979745 569.18822619 -219.2363617 567.60656629 -219.24023438 566.02490234 C-219.2498333 563.66596736 -219.28085914 561.30794597 -219.3125 558.94921875 C-219.41128323 544.91216737 -217.48739152 531.50307972 -213.3125 518.0625 C-212.93230713 516.82391235 -212.93230713 516.82391235 -212.54443359 515.56030273 C-200.51442446 477.72025902 -174.25560418 446.76867674 -139.3125 428.125 C-118.54839764 417.39451092 -96.89593556 412.76832039 -73.625 412.75 C-72.47633957 412.74898788 -72.47633957 412.74898788 -71.30447388 412.74795532 C-60.23245777 412.76348776 -49.75899679 413.15712867 -39 416 C-38.01700928 416.23348145 -38.01700928 416.23348145 -37.01416016 416.47167969 C-23.92273894 419.58528141 -13.42848589 425.08167339 -1 431 C-0.505 217.655 -0.505 217.655 0 0 Z " fill="#FEFEFE" transform="translate(1772,44)"/>
<path d="M0 0 C26.07 0 52.14 0 79 0 C86.8707483 15.7414966 86.8707483 15.7414966 89.40234375 21.72265625 C89.681315 22.37781723 89.96028625 23.03297821 90.24771118 23.70799255 C90.84064158 25.10171929 91.43164915 26.49626554 92.02078247 27.89160156 C93.31046765 30.94573269 94.61040174 33.9954744 95.9094696 37.04562378 C96.59184894 38.64805838 97.27374078 40.25070066 97.95515442 41.85354614 C101.13879277 49.3396561 104.36308692 56.80785683 107.59725952 64.27224731 C109.26263047 68.11588492 110.92620051 71.96030185 112.58984375 75.8046875 C112.93773453 76.60852371 113.28562531 77.41235992 113.64405823 78.24055481 C118.31324059 89.03154089 122.96864279 99.82847534 127.625 110.625 C128.32062546 112.23785889 128.32062546 112.23785889 129.03030396 113.88330078 C131.40473885 119.38863043 133.77906271 124.89400795 136.15332031 130.39941406 C140.31188633 140.04210012 144.4714934 149.68433709 148.63104248 159.32659912 C150.92073958 164.63438018 153.21036615 169.94219166 155.5 175.25 C156.41666633 177.37500015 157.333333 179.50000015 158.25 181.625 C160.08333333 185.875 161.91666667 190.125 163.75 194.375 C164.20367447 195.42669876 164.65734894 196.47839752 165.12477112 197.56196594 C166.04220409 199.68874468 166.95963369 201.81552488 167.87705994 203.94230652 C170.15697469 209.22760364 172.43694636 214.51287619 174.71704102 219.7980957 C178.98208923 229.68456806 183.24657196 239.57128322 187.50912476 249.45883179 C189.50497293 254.08836992 191.5011324 258.71777379 193.49731445 263.34716797 C194.4414798 265.53704258 195.38549555 267.7269817 196.3293457 269.91699219 C201.51944705 281.95945156 206.72587697 293.99407076 212 306 C215.82986509 298.64914721 219.17714181 291.12363858 222.412323 283.49697876 C223.353533 281.2782733 224.29853661 279.06121437 225.24438477 276.84448242 C226.30877 274.34968268 227.37284904 271.8547553 228.43583679 269.35935974 C232.9107334 258.85471688 237.41304284 248.36183017 241.91296387 237.8678894 C244.50247762 231.82885263 247.09116379 225.78946119 249.6796875 219.75 C249.94102982 219.14027281 250.20237213 218.53054562 250.47163391 217.90234184 C253.83924403 210.04532726 257.20423132 202.18719486 260.56643677 194.3278656 C271.30570214 169.22443234 282.09180067 144.14295749 292.98483276 119.10583496 C301.43375034 99.68013744 309.75476802 80.20157074 318.03881836 60.70507812 C323.67713624 47.43745519 329.34602449 34.18456191 335.10986328 20.97094727 C338.14579491 14.00696049 341.07707566 7.01501842 344 0 C369.41 0 394.82 0 421 0 C419.46733544 4.59799367 417.78153291 8.92169162 415.7890625 13.31640625 C415.3095388 14.38381042 415.3095388 14.38381042 414.82032776 15.47277832 C414.12456293 17.0208278 413.42751806 18.56830247 412.7293396 20.11526489 C410.80183664 24.38664383 408.88426633 28.66248557 406.96484375 32.9375 C406.55980118 33.83888199 406.15475861 34.74026398 405.73744202 35.66896057 C401.19233056 45.78749505 396.68899506 55.92450575 392.1875 66.0625 C391.34907285 67.94996589 390.51061238 69.83741698 389.67211914 71.72485352 C387.11423013 77.48300659 384.55706391 83.24148049 382 89 C378.52145736 96.8336106 375.04250286 104.66703796 371.5625 112.5 C370.92723892 113.92990768 370.92723892 113.92990768 370.27914429 115.38870239 C364.87399918 127.55342706 359.44866936 139.70867126 353.99462891 151.8515625 C349.11583331 162.72264177 344.27529088 173.61062403 339.4375 184.5 C339.01491913 185.45116699 338.59233826 186.40233398 338.1569519 187.38232422 C335.10397243 194.25458877 332.05189388 201.12725329 329 208 C325.52143236 215.83359949 322.04249941 223.66703643 318.5625 231.5 C318.13935516 232.45245605 317.71621033 233.40491211 317.28024292 234.38623047 C311.87473156 246.55177913 306.44903882 258.7078487 300.99462891 270.8515625 C296.11583308 281.72264228 291.27538749 292.61066652 286.4375 303.5 C285.80313019 304.9277475 285.80313019 304.9277475 285.15594482 306.38433838 C280.789851 316.21141343 276.42597901 326.03947289 272.06459045 335.86863708 C262.11914111 358.28092879 252.12155409 380.66657087 242 403 C221.21 403 200.42 403 179 403 C169.55721421 382.21177755 160.13799504 361.42350126 151 340.5 C144.93707964 326.61843651 138.76772115 312.79029633 132.5 299 C126.21336832 285.16732624 120.02252771 271.29755401 113.9375 257.375 C108.07587766 243.96506766 102.14674916 230.58882576 96.125 217.25 C89.7484506 203.12317176 83.41451302 188.97830945 77.125 174.8125 C76.50469406 173.41553894 76.50469406 173.41553894 75.87185669 171.99035645 C73.76826567 167.25247889 71.66539962 162.51428005 69.56298828 157.77587891 C65.23244235 148.01594235 60.89801169 138.25773154 56.5625 128.5 C55.92710297 127.0698204 55.92710297 127.0698204 55.27886963 125.61074829 C50.37112871 114.56544321 45.45204133 103.52552709 40.5 92.5 C29.12184215 67.16163179 17.82404368 41.78564396 6.66989136 16.34780884 C6.06019882 14.95740726 5.44995545 13.56724709 4.83914185 12.17733765 C4.0105919 10.29096021 3.18489267 8.40333139 2.359375 6.515625 C1.90014648 5.46665039 1.44091797 4.41767578 0.96777344 3.33691406 C0 1 0 1 0 0 Z " fill="#FEFEFE" transform="translate(42,345)"/>
<path d="M0 0 C0.77537109 0.20898926 1.55074219 0.41797852 2.34960938 0.63330078 C32.33936321 8.93959152 55.17643222 28.88217172 71.0234375 55.3359375 C87.08007018 84.19945567 89.97580961 115.92648441 90.125 148.3125 C90.13213013 149.60305298 90.13213013 149.60305298 90.1394043 150.91967773 C90.12291193 156.87708807 90.12291193 156.87708807 89 158 C86.43281803 158.09777019 83.89256084 158.12995016 81.32493591 158.12025452 C80.1047139 158.12153615 80.1047139 158.12153615 78.85984093 158.12284368 C76.11283759 158.12450097 73.36589427 158.11897306 70.61889648 158.11352539 C68.65818279 158.11324355 66.697469 158.1134012 64.73675537 158.1139679 C59.39606666 158.11425598 54.05540019 158.10835752 48.71471667 158.10139394 C43.13997684 158.09516218 37.56523655 158.09455674 31.99049377 158.09336853 C21.42593909 158.09025469 10.86139469 158.08204059 0.29684454 158.07201904 C-11.7271323 158.06085955 -23.75110961 158.05534787 -35.77509034 158.05032361 C-60.51673261 158.03985801 -85.25836573 158.02225755 -110 158 C-109.38808878 161.17708466 -108.76707539 164.35232692 -108.14453125 167.52734375 C-107.97312622 168.41788452 -107.80172119 169.30842529 -107.62512207 170.22595215 C-103.74523465 189.9144612 -94.92412128 206.52031993 -77.98095703 217.89575195 C-67.55353999 224.63068583 -57.02157734 227.55493342 -45 230 C-44.08734375 230.19722656 -43.1746875 230.39445313 -42.234375 230.59765625 C-28.11090412 232.35456144 -12.96282282 231.61336256 1 229 C1.71784668 228.87641113 2.43569336 228.75282227 3.17529297 228.62548828 C25.7552088 224.70618877 45.64926844 215.71893633 64 202 C66.64222138 205.196259 68.14984043 208.4088874 69.70703125 212.2421875 C69.95490891 212.84700958 70.20278656 213.45183167 70.45817566 214.07498169 C71.24843096 216.00613835 72.03076479 217.94038076 72.8125 219.875 C73.58179743 221.76506536 74.3527743 223.6544353 75.1244812 225.54351807 C75.63743315 226.79994847 76.1490935 228.05690696 76.65945435 229.31439209 C77.97623356 232.54782184 79.32320143 235.76395058 80.72412109 238.96191406 C81.00269455 239.59944611 81.28126801 240.23697815 81.56828308 240.89382935 C82.34235613 242.65677686 83.12348092 244.41662322 83.9050293 246.17626953 C85 249 85 249 85 252 C83.07009005 253.58809205 81.20619083 254.95030268 79.125 256.3125 C78.5263916 256.71202881 77.9277832 257.11155762 77.31103516 257.52319336 C76.09970612 258.32637477 74.88471281 259.12405881 73.66601562 259.91601562 C72.29342068 260.80908736 70.93388932 261.72220401 69.578125 262.640625 C30.262957 288.01424406 -25.13114831 292.49363181 -69.96777344 283.39794922 C-83.35472906 280.48251924 -95.80263975 276.23552855 -108 270 C-108.63228516 269.67773438 -109.26457031 269.35546875 -109.91601562 269.0234375 C-128.68889486 259.27026265 -145.49600659 244.83602339 -157 227 C-157.35900391 226.45827148 -157.71800781 225.91654297 -158.08789062 225.35839844 C-180.86057082 190.77263286 -184.79240382 144.96308746 -176.68359375 105.03564453 C-171.40149171 80.69950312 -161.14329864 59.99211605 -145 41 C-144.46375 40.34 -143.9275 39.68 -143.375 39 C-110.60210123 -0.89744199 -48.18337055 -13.47028675 0 0 Z M-92.80078125 70.1484375 C-102.61639811 82.87561389 -110 99.78563867 -110 116 C-64.13 116 -18.26 116 29 116 C28.14609048 104.4899499 28.14609048 104.4899499 25.8125 93.4375 C25.48149292 92.22235718 25.48149292 92.22235718 25.14379883 90.98266602 C20.427256 74.42943061 11.08103141 60.93715476 -4 52.27734375 C-34.2269007 37.20093617 -70.92802801 44.87834562 -92.80078125 70.1484375 Z " fill="#FEFEFE" transform="translate(1431,467)"/>
<path d="M0 0 C0.77537109 0.20898926 1.55074219 0.41797852 2.34960938 0.63330078 C32.33936321 8.93959152 55.17643222 28.88217172 71.0234375 55.3359375 C87.08007018 84.19945567 89.97580961 115.92648441 90.125 148.3125 C90.13213013 149.60305298 90.13213013 149.60305298 90.1394043 150.91967773 C90.12291193 156.87708807 90.12291193 156.87708807 89 158 C86.43281803 158.09777019 83.89256084 158.12995016 81.32493591 158.12025452 C80.1047139 158.12153615 80.1047139 158.12153615 78.85984093 158.12284368 C76.11283759 158.12450097 73.36589427 158.11897306 70.61889648 158.11352539 C68.65818279 158.11324355 66.697469 158.1134012 64.73675537 158.1139679 C59.39606666 158.11425598 54.05540019 158.10835752 48.71471667 158.10139394 C43.13997684 158.09516218 37.56523655 158.09455674 31.99049377 158.09336853 C21.42593909 158.09025469 10.86139469 158.08204059 0.29684454 158.07201904 C-11.7271323 158.06085955 -23.75110961 158.05534787 -35.77509034 158.05032361 C-60.51673261 158.03985801 -85.25836573 158.02225755 -110 158 C-109.38808878 161.17708466 -108.76707539 164.35232692 -108.14453125 167.52734375 C-107.97312622 168.41788452 -107.80172119 169.30842529 -107.62512207 170.22595215 C-103.74523465 189.9144612 -94.92412128 206.52031993 -77.98095703 217.89575195 C-67.55353999 224.63068583 -57.02157734 227.55493342 -45 230 C-44.08734375 230.19722656 -43.1746875 230.39445313 -42.234375 230.59765625 C-28.11090412 232.35456144 -12.96282282 231.61336256 1 229 C1.71784668 228.87641113 2.43569336 228.75282227 3.17529297 228.62548828 C25.7552088 224.70618877 45.64926844 215.71893633 64 202 C66.64222138 205.196259 68.14984043 208.4088874 69.70703125 212.2421875 C69.95490891 212.84700958 70.20278656 213.45183167 70.45817566 214.07498169 C71.24843096 216.00613835 72.03076479 217.94038076 72.8125 219.875 C73.58179743 221.76506536 74.3527743 223.6544353 75.1244812 225.54351807 C75.63743315 226.79994847 76.1490935 228.05690696 76.65945435 229.31439209 C77.97623356 232.54782184 79.32320143 235.76395058 80.72412109 238.96191406 C81.00269455 239.59944611 81.28126801 240.23697815 81.56828308 240.89382935 C82.34235613 242.65677686 83.12348092 244.41662322 83.9050293 246.17626953 C85 249 85 249 85 252 C83.07009005 253.58809205 81.20619083 254.95030268 79.125 256.3125 C78.5263916 256.71202881 77.9277832 257.11155762 77.31103516 257.52319336 C76.09970612 258.32637477 74.88471281 259.12405881 73.66601562 259.91601562 C72.29342068 260.80908736 70.93388932 261.72220401 69.578125 262.640625 C30.262957 288.01424406 -25.13114831 292.49363181 -69.96777344 283.39794922 C-83.35472906 280.48251924 -95.80263975 276.23552855 -108 270 C-108.63228516 269.67773438 -109.26457031 269.35546875 -109.91601562 269.0234375 C-128.68889486 259.27026265 -145.49600659 244.83602339 -157 227 C-157.35900391 226.45827148 -157.71800781 225.91654297 -158.08789062 225.35839844 C-180.86057082 190.77263286 -184.79240382 144.96308746 -176.68359375 105.03564453 C-171.40149171 80.69950312 -161.14329864 59.99211605 -145 41 C-144.46375 40.34 -143.9275 39.68 -143.375 39 C-110.60210123 -0.89744199 -48.18337055 -13.47028675 0 0 Z M-92.80078125 70.1484375 C-102.61639811 82.87561389 -110 99.78563867 -110 116 C-64.13 116 -18.26 116 29 116 C28.14609048 104.4899499 28.14609048 104.4899499 25.8125 93.4375 C25.48149292 92.22235718 25.48149292 92.22235718 25.14379883 90.98266602 C20.427256 74.42943061 11.08103141 60.93715476 -4 52.27734375 C-34.2269007 37.20093617 -70.92802801 44.87834562 -92.80078125 70.1484375 Z " fill="#FEFEFE" transform="translate(622,467)"/>
<path d="M0 0 C1.16739212 -0.01052147 1.16739212 -0.01052147 2.35836792 -0.02125549 C4.85876306 -0.03867622 7.35892138 -0.04510859 9.859375 -0.046875 C11.14059235 -0.04788712 11.14059235 -0.04788712 12.44769287 -0.04891968 C25.08225467 -0.03304376 37.24004143 0.42644738 49.609375 3.203125 C50.80771973 3.45255859 50.80771973 3.45255859 52.03027344 3.70703125 C75.04274182 8.54421807 96.16626241 17.54832743 114.609375 32.203125 C114.00878224 36.90971049 112.69297365 40.82148062 110.84375 45.18359375 C110.56847473 45.83709305 110.29319946 46.49059235 110.00958252 47.16389465 C109.13220677 49.2420829 108.24578988 51.31627877 107.359375 53.390625 C106.77938741 54.76343521 106.19995563 56.13648037 105.62109375 57.50976562 C102.40008337 65.12832516 99.08407349 72.69607258 95.609375 80.203125 C92.09874279 78.85496427 89.44905573 77.45438874 86.484375 75.140625 C60.48332436 56.57951732 24.29583581 48.85257947 -7.09960938 52.51953125 C-17.55330362 54.31857972 -28.36444761 57.93703395 -35.390625 66.203125 C-36.4425 67.2859375 -36.4425 67.2859375 -37.515625 68.390625 C-41.75751962 74.75346693 -43.51732064 82.62922652 -42.390625 90.203125 C-40.71760198 96.72431687 -38.79772497 101.92774363 -33.390625 106.203125 C-32.400625 107.04875 -31.410625 107.894375 -30.390625 108.765625 C-21.66084749 114.7870494 -9.58518969 116.14949408 0.625 118.078125 C2.60534335 118.46220204 4.58568601 118.8462827 6.56599045 119.2305603 C9.30596999 119.76047852 12.04716048 120.28397152 14.78839111 120.80737305 C92.46335689 135.65056889 92.46335689 135.65056889 110.609375 161.203125 C122.46005405 180.42659614 124.49633711 202.48706186 119.703125 224.3671875 C116.07836797 237.07972823 110.23900631 247.25018971 101.609375 257.203125 C100.74892578 258.21439453 100.74892578 258.21439453 99.87109375 259.24609375 C79.98200132 280.81317413 46.58228907 289.71302832 18.43643188 291.32778931 C13.20290039 291.52942157 7.97107359 291.54114657 2.734375 291.515625 C1.93189331 291.51346985 1.12941162 291.5113147 0.3026123 291.50909424 C-38.54860152 291.34284987 -86.01383794 284.87614948 -116.390625 258.203125 C-114.40650788 252.07340429 -112.23761355 246.04492386 -109.88671875 240.046875 C-109.56276627 239.21853149 -109.23881378 238.39018799 -108.90504456 237.53674316 C-108.22650077 235.8052309 -107.54663133 234.07423758 -106.86547852 232.34375 C-105.8209481 229.6848559 -104.7864342 227.02219233 -103.75195312 224.359375 C-103.08915363 222.67163454 -102.42576371 220.98412581 -101.76171875 219.296875 C-101.45334579 218.49906616 -101.14497284 217.70125732 -100.82725525 216.87927246 C-98.61913341 211.3173792 -98.61913341 211.3173792 -96.390625 210.203125 C-93.96844809 211.44628516 -91.66213743 212.7471229 -89.328125 214.140625 C-69.69789176 225.47567365 -49.91486671 232.89636641 -27.56933594 236.8125 C-25.7458387 237.1394381 -23.93020689 237.50984766 -22.1171875 237.890625 C-0.81132161 242.00328544 26.00483781 241.5979031 44.609375 229.203125 C51.30721813 223.44433758 54.87533406 216.41565459 55.61328125 207.60546875 C55.60284659 201.18815471 54.30933917 195.4887881 50.609375 190.203125 C40.39540357 180.89618578 26.95570488 177.70149128 13.72784424 175.29568863 C11.47546178 174.88542999 9.22665462 174.45887516 6.97802734 174.02853394 C1.39076054 172.96227485 -4.20091448 171.92006346 -9.79351807 170.88220215 C-78.14290918 158.19190728 -78.14290918 158.19190728 -96.390625 133.140625 C-97.42158186 131.51400417 -98.42341154 129.86843743 -99.390625 128.203125 C-100.07705078 127.07197266 -100.07705078 127.07197266 -100.77734375 125.91796875 C-110.18950622 108.9873822 -111.42895213 86.20018091 -106.890625 67.578125 C-102.99365419 54.61556945 -97.13344955 43.68313733 -87.390625 34.203125 C-86.09125 32.841875 -86.09125 32.841875 -84.765625 31.453125 C-83.981875 30.710625 -83.198125 29.968125 -82.390625 29.203125 C-81.92914062 28.75839844 -81.46765625 28.31367188 -80.9921875 27.85546875 C-59.97642166 8.6337317 -28.02372645 0.16957589 0 0 Z " fill="#FEFEFE" transform="translate(1088.390625,462.796875)"/>
<path d="M0 0 C0.57732724 6.73968064 1.14600648 13.48005297 1.70898438 20.22094727 C1.90105463 22.50887139 2.0950256 24.79663684 2.29101562 27.08422852 C4.31507332 50.73782111 4.31507332 50.73782111 4 62 C3.42387466 62.05375793 2.84774933 62.10751587 2.25416565 62.16290283 C-3.8323818 62.73321385 -9.91715382 63.3203254 -16.0012207 63.91650391 C-18.26123667 64.13584187 -20.52165027 64.35112722 -22.7824707 64.56201172 C-44.99711449 66.63925073 -65.59468789 69.32332539 -84 83 C-84.88558594 83.60328125 -84.88558594 83.60328125 -85.7890625 84.21875 C-98.24959874 93.54992782 -103.41682643 109.62782568 -105.5888176 124.32500267 C-106.32408711 130.89657156 -106.30973901 137.46855677 -106.31884766 144.0715332 C-106.32816938 145.63993839 -106.3383413 147.20833872 -106.34928894 148.7767334 C-106.37635038 152.99276104 -106.39166668 157.20875573 -106.40471697 161.42484689 C-106.42045312 165.84643556 -106.44720933 170.26795794 -106.4727478 174.6894989 C-106.51935138 183.0436675 -106.55618405 191.39784883 -106.58942068 199.75208014 C-106.63495824 211.05433145 -106.69576324 222.35650025 -106.75566864 233.65868282 C-106.84951203 251.43908032 -106.92310699 269.2195024 -107 287 C-131.09 287 -155.18 287 -180 287 C-180 194.6 -180 102.2 -180 7 C-156.9 7 -133.8 7 -110 7 C-109.67 21.85 -109.34 36.7 -109 52 C-106.69 48.04 -104.38 44.08 -102 40 C-87.32494184 18.77128189 -65.07602829 8.48531314 -40.5625 3.3125 C-27.2604538 0.98530305 -13.49879595 -0.08891109 0 0 Z " fill="#FEFEFE" transform="translate(947,461)"/>
</svg>
